<svg width="200" height="200" viewBox="0 0 200 200" xmlns="http://www.w3.org/2000/svg">
  <defs>
    <radialGradient id="glow3" cx="50%" cy="50%" r="30%">
      <stop offset="0%" stop-color="#00d4ff" stop-opacity="0.15"/>
      <stop offset="100%" stop-color="#00d4ff" stop-opacity="0"/>
    </radialGradient>
  </defs>
  <rect width="200" height="200" fill="transparent"/>
  <circle cx="100" cy="100" r="50" fill="url(#glow3)"/>
  <!-- Circuit lines -->
  <g stroke="#00d4ff" stroke-width="1.5" opacity="0.5" fill="none">
    <path d="M100 50 L100 30 L40 30"/>
    <path d="M150 100 L170 100 L170 40"/>
    <path d="M100 150 L100 170 L160 170"/>
    <path d="M50 100 L30 100 L30 160"/>
    <path d="M130 70 L160 40"/>
    <path d="M70 130 L40 160"/>
  </g>
  <!-- Circuit nodes -->
  <g fill="#00d4ff" opacity="0.6">
    <circle cx="40" cy="30" r="3"/>
    <circle cx="170" cy="40" r="3"/>
    <circle cx="160" cy="170" r="3"/>
    <circle cx="30" cy="160" r="3"/>
    <circle cx="160" cy="40" r="3"/>
    <circle cx="40" cy="160" r="3"/>
  </g>
  <!-- Center person icon -->
  <circle cx="100" cy="82" r="18" fill="none" stroke="#00d4ff" stroke-width="2"/>
  <path d="M72 130 C72 108 128 108 128 130" fill="none" stroke="#00d4ff" stroke-width="2" stroke-linecap="round"/>
</svg>
