<svg width="200" height="200" viewBox="0 0 200 200" xmlns="http://www.w3.org/2000/svg">
  <defs>
    <linearGradient id="bg4" x1="0%" y1="0%" x2="100%" y2="100%">
      <stop offset="0%" stop-color="#1a1a2e"/>
      <stop offset="100%" stop-color="#16213e"/>
    </linearGradient>
  </defs>
  <rect width="200" height="200" fill="transparent"/>
  <!-- Phone outline -->
  <rect x="72" y="38" width="56" height="98" rx="10" fill="none" stroke="rgba(251,191,36,0.5)" stroke-width="2"/>
  <rect x="93" y="43" width="14" height="3" rx="1.5" fill="rgba(251,191,36,0.3)"/>
  <!-- Code lines on phone screen -->
  <g opacity="0.7">
    <rect x="81" y="54" width="22" height="3" rx="1.5" fill="#fbbf24"/>
    <rect x="81" y="62" width="32" height="3" rx="1.5" fill="#818cf8"/>
    <rect x="86" y="70" width="18" height="3" rx="1.5" fill="#34d399"/>
    <rect x="86" y="78" width="27" height="3" rx="1.5" fill="#818cf8"/>
    <rect x="81" y="86" width="16" height="3" rx="1.5" fill="#f87171"/>
    <rect x="81" y="94" width="25" height="3" rx="1.5" fill="#fbbf24"/>
    <rect x="86" y="102" width="20" height="3" rx="1.5" fill="#34d399"/>
    <rect x="81" y="110" width="14" height="3" rx="1.5" fill="#818cf8"/>
    <rect x="81" y="118" width="28" height="3" rx="1.5" fill="#fbbf24"/>
  </g>
  <!-- Floating elements -->
  <circle cx="60" cy="158" r="14" fill="none" stroke="rgba(129,140,248,0.3)" stroke-width="1.5"/>
  <text x="60" y="162" text-anchor="middle" fill="#818cf8" font-size="12" font-family="monospace" font-weight="bold">{ }</text>
  <circle cx="100" cy="163" r="13" fill="none" stroke="rgba(52,211,153,0.3)" stroke-width="1.5"/>
  <text x="100" y="167" text-anchor="middle" fill="#34d399" font-size="11" font-family="monospace" font-weight="bold">UI</text>
  <circle cx="140" cy="158" r="14" fill="none" stroke="rgba(248,113,113,0.3)" stroke-width="1.5"/>
  <text x="140" y="162" text-anchor="middle" fill="#f87171" font-size="10" font-family="monospace" font-weight="bold">API</text>
</svg>
